<svg width="40" height="40" viewBox="0 0 40 40" fill="none" xmlns="http://www.w3.org/2000/svg">
<g id="mdi-light:dots-vertical">
<path id="Vector" d="M20.5 29.5C21.4283 29.5 22.3185 29.8951 22.9749 30.5984C23.6313 31.3016 24 32.2554 24 33.25C24 34.2446 23.6313 35.1984 22.9749 35.9016C22.3185 36.6049 21.4283 37 20.5 37C19.5717 37 18.6815 36.6049 18.0251 35.9016C17.3687 35.1984 17 34.2446 17 33.25C17 32.2554 17.3687 31.3016 18.0251 30.5984C18.6815 29.8951 19.5717 29.5 20.5 29.5ZM20.5 18.25C21.4283 18.25 22.3185 18.6451 22.9749 19.3484C23.6313 20.0516 24 21.0054 24 22C24 22.9946 23.6313 23.9484 22.9749 24.6516C22.3185 25.3549 21.4283 25.75 20.5 25.75C19.5717 25.75 18.6815 25.3549 18.0251 24.6516C17.3687 23.9484 17 22.9946 17 22C17 21.0054 17.3687 20.0516 18.0251 19.3484C18.6815 18.6451 19.5717 18.25 20.5 18.25ZM20.5 7C21.4283 7 22.3185 7.39509 22.9749 8.09835C23.6313 8.80161 24 9.75544 24 10.75C24 11.7446 23.6313 12.6984 22.9749 13.4017C22.3185 14.1049 21.4283 14.5 20.5 14.5C19.5717 14.5 18.6815 14.1049 18.0251 13.4017C17.3687 12.6984 17 11.7446 17 10.75C17 9.75544 17.3687 8.80161 18.0251 8.09835C18.6815 7.39509 19.5717 7 20.5 7ZM20.5 8.875C20.0359 8.875 19.5908 9.07254 19.2626 9.42418C18.9344 9.77581 18.75 10.2527 18.75 10.75C18.75 11.2473 18.9344 11.7242 19.2626 12.0758C19.5908 12.4275 20.0359 12.625 20.5 12.625C20.9641 12.625 21.4092 12.4275 21.7374 12.0758C22.0656 11.7242 22.25 11.2473 22.25 10.75C22.25 10.2527 22.0656 9.77581 21.7374 9.42418C21.4092 9.07254 20.9641 8.875 20.5 8.875ZM20.5 20.125C20.0359 20.125 19.5908 20.3225 19.2626 20.6742C18.9344 21.0258 18.75 21.5027 18.75 22C18.75 22.4973 18.9344 22.9742 19.2626 23.3258C19.5908 23.6775 20.0359 23.875 20.5 23.875C20.9641 23.875 21.4092 23.6775 21.7374 23.3258C22.0656 22.9742 22.25 22.4973 22.25 22C22.25 21.5027 22.0656 21.0258 21.7374 20.6742C21.4092 20.3225 20.9641 20.125 20.5 20.125ZM20.5 31.375C20.0359 31.375 19.5908 31.5725 19.2626 31.9242C18.9344 32.2758 18.75 32.7527 18.75 33.25C18.75 33.7473 18.9344 34.2242 19.2626 34.5758C19.5908 34.9275 20.0359 35.125 20.5 35.125C20.9641 35.125 21.4092 34.9275 21.7374 34.5758C22.0656 34.2242 22.25 33.7473 22.25 33.25C22.25 32.7527 22.0656 32.2758 21.7374 31.9242C21.4092 31.5725 20.9641 31.375 20.5 31.375Z" fill="#363F3D"/>
</g>
</svg>
