<svg width="64" height="52" viewBox="0 0 64 52" fill="none" xmlns="http://www.w3.org/2000/svg">
<g id="Journal Icon">
<g id="Group 1000004496">
<path id="Vector" d="M7.79605 6.7327C6.7364 6.7327 5.67674 6.7318 4.61709 6.7329C2.66423 6.73493 1.62072 7.78056 1.61921 9.82054C1.61019 22.0508 1.60819 34.281 1.62022 46.5112C1.62264 48.9804 2.94425 50.3902 5.3224 50.2957C6.9766 50.2299 8.61967 50.2913 10.2687 50.2965C25.7513 50.3455 41.2348 50.2393 56.7162 50.3895C60.3435 50.4247 62.2948 47.2866 62.321 44.6944C62.4323 33.6762 62.3744 22.6562 62.3612 11.6369C62.3593 10.0958 61.4501 9.17735 59.8953 9.10357C58.8379 9.0534 57.7764 9.09398 56.7168 9.09398C48.475 9.09398 40.2298 8.95556 31.9934 9.17134C29.224 9.24389 27.5652 8.12294 26.5658 5.80211C25.9992 4.48643 24.9611 3.6639 24.2122 2.56116C23.8391 2.01178 23.2261 2.00682 22.6312 2.00759C18.8047 2.01257 14.9778 1.97844 11.1518 2.0242C9.37647 2.04543 8.85897 2.9132 8.44184 4.71988C8.04847 6.42364 8.51165 8.00411 8.50972 9.6389C8.49612 21.2031 8.46315 32.7676 8.54186 44.3313C8.55473 46.2222 8.11503 47.9758 7.79605 49.7807" stroke="#363F3D" stroke-width="3" stroke-linecap="round" stroke-linejoin="round"/>
<path id="Vector_2" d="M41.3525 22.8984C45.4734 22.8984 49.5944 22.909 53.7151 22.8853C54.2413 22.8823 54.8121 23.1221 55.3047 22.7168" stroke="#363F3D" stroke-width="3" stroke-linecap="round" stroke-linejoin="round"/>
<path id="Vector_3" d="M55.4806 29.8004C50.8887 29.8004 46.2969 29.8004 41.7051 29.8004" stroke="#363F3D" stroke-width="3" stroke-linecap="round" stroke-linejoin="round"/>
<path id="Vector_4" d="M41.3525 36.7028C44.8847 36.7028 48.4169 36.7028 51.9491 36.7028" stroke="#363F3D" stroke-width="3" stroke-linecap="round" stroke-linejoin="round"/>
<path id="Vector_5" d="M22.985 18.1758C21.725 18.9548 21.9332 20.2437 21.929 21.4453C21.9163 25.0754 21.9227 25.0657 18.3932 25.0876C17.8052 25.0912 17.2016 24.935 16.6205 25.2468C16.365 25.3839 15.9292 25.2748 15.7612 25.458C14.3284 27.0191 15.1251 28.9588 15.1032 30.7097C15.0855 32.1223 16.5779 31.9233 17.5153 32.138C18.431 32.3478 19.3889 32.174 20.3421 32.2896C21.5777 32.4394 21.9625 32.9871 21.9378 34.1602C21.9123 35.3713 21.9342 36.58 22.0664 37.7967C22.1781 38.8259 22.6268 39.0369 23.5141 39.0806C28.394 39.321 28.4296 39.339 28.4344 34.3415C28.4356 33.0873 28.7932 32.5048 30.0433 32.3039C30.9978 32.1505 31.9331 32.2187 32.8753 32.1651C34.8637 32.0519 35.5067 31.3905 35.5258 29.4374C35.5644 25.5137 36.1141 25.0424 31.109 25.0749C28.6262 25.0911 28.4632 24.9087 28.4599 22.3535C28.4544 18.1758 28.4544 18.1758 24.3979 18.1758C23.9858 18.1758 23.5737 18.1758 23.1616 18.1758" stroke="#363F3D" stroke-width="3" stroke-linecap="round" stroke-linejoin="round"/>
</g>
</g>
</svg>
