<svg width="62" height="51" viewBox="0 0 62 51" fill="none" xmlns="http://www.w3.org/2000/svg">
<g id="Group 36">
<g id="Group 1000004496">
<path id="Vector" d="M7.90168 6.59677C6.89045 6.59677 5.8792 6.5959 4.86797 6.59696C3.00433 6.59893 2.0085 7.61454 2.00706 9.59592C1.99845 21.4749 1.99654 33.3539 2.00802 45.2328C2.01033 47.631 3.27156 49.0004 5.54105 48.9086C7.11967 48.8447 8.68767 48.9043 10.2613 48.9094C25.0365 48.957 39.8127 48.8539 54.5867 48.9997C58.0483 49.0339 59.9104 45.9859 59.9354 43.4681C60.0417 32.7665 59.9864 22.0629 59.9738 11.3601C59.972 9.86331 59.1043 8.97121 57.6206 8.89955C56.6115 8.85082 55.5985 8.89024 54.5872 8.89024C46.7221 8.89024 38.8536 8.75579 30.9935 8.96537C28.3506 9.03584 26.7676 7.94708 25.8139 5.69291C25.2732 4.41502 24.2824 3.61611 23.5678 2.54505C23.2117 2.01144 22.6267 2.00662 22.059 2.00737C18.4073 2.01221 14.7553 1.97906 11.1041 2.0235C9.40989 2.04413 8.91603 2.88697 8.51796 4.64176C8.14256 6.29659 8.58458 7.83166 8.58275 9.41951C8.56977 20.6516 8.5383 31.884 8.61342 43.1155C8.6257 44.952 8.20609 46.6553 7.90168 48.4084" stroke="#363F3D" stroke-width="3" stroke-linecap="round" stroke-linejoin="round"/>
<path id="Vector_2" d="M39.9248 22.2982C43.8574 22.2982 47.7901 22.3084 51.7225 22.2854C52.2247 22.2825 52.7694 22.5154 53.2395 22.1218" stroke="#363F3D" stroke-width="3" stroke-linecap="round" stroke-linejoin="round"/>
<path id="Vector_3" d="M53.4069 29.002C49.0248 29.002 44.6428 29.002 40.2607 29.002" stroke="#363F3D" stroke-width="3" stroke-linecap="round" stroke-linejoin="round"/>
<path id="Vector_4" d="M39.9248 35.7061C43.2956 35.7061 46.6664 35.7061 50.0372 35.7061" stroke="#363F3D" stroke-width="3" stroke-linecap="round" stroke-linejoin="round"/>
<path id="Vector_5" d="M22.3964 17.7112C21.1941 18.4678 21.3927 19.7197 21.3887 20.8868C21.3766 24.4126 21.3827 24.4032 18.0145 24.4244C17.4533 24.428 16.8773 24.2762 16.3228 24.5791C16.0789 24.7123 15.6631 24.6063 15.5027 24.7842C14.1354 26.3005 14.8956 28.1844 14.8747 29.8851C14.8579 31.2571 16.2821 31.0638 17.1766 31.2724C18.0505 31.4761 18.9647 31.3073 19.8743 31.4196C21.0535 31.5651 21.4207 32.0971 21.3971 33.2365C21.3727 34.4128 21.3937 35.5868 21.5198 36.7686C21.6265 37.7682 22.0546 37.9731 22.9013 38.0156C27.5583 38.2491 27.5923 38.2666 27.5968 33.4126C27.598 32.1944 27.9393 31.6286 29.1323 31.4335C30.0432 31.2845 30.9357 31.3508 31.8349 31.2987C33.7324 31.1887 34.346 30.5463 34.3643 28.6493C34.4011 24.8383 34.9257 24.3805 30.1493 24.4121C27.7799 24.4278 27.6244 24.2507 27.6212 21.7689C27.6159 17.7112 27.6159 17.7112 23.7448 17.7112C23.3515 17.7112 22.9582 17.7112 22.565 17.7112" stroke="#363F3D" stroke-width="3" stroke-linecap="round" stroke-linejoin="round"/>
</g>
</g>
</svg>
