<svg width="36" height="36" viewBox="0 0 36 36" fill="none" xmlns="http://www.w3.org/2000/svg">
<g id="circum:location-on">
<path id="Vector" d="M18 32.8992C17.597 32.9005 17.1994 32.8075 16.8389 32.6275C16.4784 32.4475 16.165 32.1856 15.924 31.8627L8.33249 21.7497C7.07641 19.9783 6.3316 17.8957 6.17953 15.7296C6.02745 13.5634 6.47397 11.3972 7.47023 9.46773C8.4665 7.53828 9.97415 5.91994 11.8283 4.7897C13.6825 3.65946 15.8117 3.06085 17.9832 3.05933C20.1547 3.05781 22.2847 3.65345 24.1405 4.7811C25.9962 5.90874 27.5061 7.52498 28.5051 9.45303C29.504 11.3811 29.9536 13.5467 29.8045 15.7131C29.6555 17.8794 28.9136 19.9631 27.66 21.7362L20.0775 31.8597C19.8366 32.1833 19.5232 32.4459 19.1624 32.6265C18.8015 32.807 18.4034 32.9004 18 32.8992ZM17.988 4.59867C15.4525 4.58927 13.0043 5.52457 11.121 7.22217C9.23129 8.90904 8.02691 11.2312 7.73656 13.7475C7.44621 16.2639 8.09011 18.7993 9.54599 20.8722L17.1225 30.9627C17.2245 31.0987 17.3567 31.209 17.5088 31.2851C17.6608 31.3611 17.8285 31.4007 17.9985 31.4007C18.169 31.4011 18.3372 31.3618 18.4898 31.2857C18.6424 31.2097 18.7752 31.0991 18.8775 30.9627L26.4435 20.8617C27.4758 19.4009 28.1103 17.6967 28.2847 15.9164C28.4592 14.1362 28.1675 12.3413 27.4383 10.7079C26.7092 9.07451 25.5676 7.65891 24.1259 6.60018C22.6841 5.54144 20.9917 4.87598 19.215 4.66917C18.8077 4.62174 18.398 4.5982 17.988 4.59867Z" fill="#363F3D"/>
<path id="Vector_2" d="M18 18.7498C17.2583 18.7498 16.5333 18.5298 15.9166 18.1178C15.2999 17.7057 14.8193 17.12 14.5355 16.4348C14.2516 15.7496 14.1774 14.9956 14.3221 14.2682C14.4668 13.5407 14.8239 12.8726 15.3484 12.3481C15.8728 11.8237 16.541 11.4665 17.2684 11.3218C17.9958 11.1771 18.7498 11.2514 19.4351 11.5352C20.1203 11.819 20.706 12.2997 21.118 12.9164C21.5301 13.5331 21.75 14.2581 21.75 14.9998C21.75 15.9943 21.3549 16.9481 20.6517 17.6514C19.9484 18.3547 18.9946 18.7498 18 18.7498ZM18 12.7498C17.555 12.7498 17.12 12.8817 16.75 13.129C16.38 13.3762 16.0916 13.7276 15.9213 14.1387C15.751 14.5499 15.7064 15.0023 15.7932 15.4387C15.8801 15.8752 16.0943 16.2761 16.409 16.5907C16.7237 16.9054 17.1246 17.1197 17.561 17.2065C17.9975 17.2933 18.4499 17.2488 18.861 17.0785C19.2722 16.9082 19.6236 16.6198 19.8708 16.2498C20.118 15.8798 20.25 15.4448 20.25 14.9998C20.25 14.403 20.0129 13.8307 19.591 13.4088C19.169 12.9868 18.5967 12.7498 18 12.7498Z" fill="#363F3D"/>
</g>
</svg>
