<svg width="26" height="25" viewBox="0 0 26 25" fill="none" xmlns="http://www.w3.org/2000/svg">
<path d="M4.75 1H12.25C13.2446 1 14.1984 1.39509 14.9017 2.09835C15.6049 2.80161 16 3.75544 16 4.75V9.75H14.75V4.75C14.75 4.08696 14.4866 3.45107 14.0178 2.98223C13.5489 2.51339 12.913 2.25 12.25 2.25H4.75C4.08696 2.25 3.45107 2.51339 2.98223 2.98223C2.51339 3.45107 2.25 4.08696 2.25 4.75V21C2.25 21.663 2.51339 22.2989 2.98223 22.7678C3.45107 23.2366 4.08696 23.5 4.75 23.5H12.25C12.913 23.5 13.5489 23.2366 14.0178 22.7678C14.4866 22.2989 14.75 21.663 14.75 21V16H16V21C16 21.9946 15.6049 22.9484 14.9017 23.6517C14.1984 24.3549 13.2446 24.75 12.25 24.75H4.75C3.75544 24.75 2.80161 24.3549 2.09835 23.6517C1.39509 22.9484 1 21.9946 1 21V4.75C1 3.75544 1.39509 2.80161 2.09835 2.09835C2.80161 1.39509 3.75544 1 4.75 1ZM8.5 12.25H22.5625L18.5 8.1875L19.325 7.25L24.95 12.875L19.325 18.5L18.5 17.5625L22.5625 13.5H8.5V12.25Z" fill="#363F3D" stroke="#455451" stroke-width="0.5"/>
</svg>
