<svg width="27" height="21" viewBox="0 0 27 21" fill="none" xmlns="http://www.w3.org/2000/svg">
<path id="Vector" d="M4.26316 -0.000244141H22.7368C23.8675 -0.000244141 24.9519 0.442255 25.7514 1.22991C26.5508 2.01756 27 3.08585 27 4.19976V16.7998C27 17.9137 26.5508 18.982 25.7514 19.7696C24.9519 20.5573 23.8675 20.9998 22.7368 20.9998H4.26316C3.1325 20.9998 2.04815 20.5573 1.24865 19.7696C0.449153 18.982 0 17.9137 0 16.7998V4.19976C0 3.08585 0.449153 2.01756 1.24865 1.22991C2.04815 0.442255 3.1325 -0.000244141 4.26316 -0.000244141ZM4.26316 1.39976C3.55263 1.39976 2.92737 1.63776 2.44421 2.05776L13.5 9.09976L24.5558 2.05776C24.0726 1.63776 23.4474 1.39976 22.7368 1.39976H4.26316ZM13.5 10.7938L1.60579 3.19176C1.49211 3.49976 1.42105 3.84976 1.42105 4.19976V16.7998C1.42105 17.5424 1.72049 18.2546 2.25349 18.7797C2.78648 19.3048 3.50938 19.5998 4.26316 19.5998H22.7368C23.4906 19.5998 24.2135 19.3048 24.7465 18.7797C25.2795 18.2546 25.5789 17.5424 25.5789 16.7998V4.19976C25.5789 3.84976 25.5079 3.49976 25.3942 3.19176L13.5 10.7938Z" fill="#363F3D"/>
</svg>
