<svg width="23" height="23" viewBox="0 0 23 23" fill="none" xmlns="http://www.w3.org/2000/svg">
<path id="Vector" d="M21.1842 23C21.6658 23 22.1276 22.8087 22.4682 22.4682C22.8087 22.1276 23 21.6658 23 21.1842V16.9474C23 16.4658 22.8087 16.0039 22.4682 15.6634C22.1276 15.3229 21.6658 15.1316 21.1842 15.1316C19.7679 15.1316 18.3758 14.9137 17.0442 14.4658C16.7259 14.3653 16.3861 14.3539 16.0617 14.4329C15.7373 14.5118 15.4408 14.6781 15.2042 14.9137L13.4611 16.6568C10.4496 15.0135 7.97444 12.5383 6.33105 9.52684L8.06211 7.79579C8.55842 7.32368 8.74 6.62158 8.52211 5.94368C8.08632 4.62421 7.86842 3.23211 7.86842 1.81579C7.86842 1.33421 7.67712 0.872359 7.33659 0.531833C6.99606 0.191306 6.53421 0 6.05263 0H1.81579C1.33421 0 0.872359 0.191306 0.531833 0.531833C0.191306 0.872359 0 1.33421 0 1.81579C0 13.4974 9.50263 23 21.1842 23ZM1.81579 1.21053H6.05263C6.21316 1.21053 6.36711 1.2743 6.48062 1.3878C6.59413 1.50131 6.6579 1.65526 6.6579 1.81579C6.6579 3.36526 6.9 4.87842 7.37211 6.31895C7.43263 6.48842 7.42053 6.73053 7.22684 6.92421L4.84211 9.29684C6.83947 13.2068 9.76895 16.1363 13.6911 18.1579L16.0516 15.7732C16.2211 15.6037 16.4511 15.5553 16.6689 15.6158C18.1216 16.1 19.6347 16.3421 21.1842 16.3421C21.3447 16.3421 21.4987 16.4059 21.6122 16.5194C21.7257 16.6329 21.7895 16.7868 21.7895 16.9474V21.1842C21.7895 21.3447 21.7257 21.4987 21.6122 21.6122C21.4987 21.7257 21.3447 21.7895 21.1842 21.7895C10.1684 21.7895 1.21053 12.8316 1.21053 1.81579C1.21053 1.65526 1.2743 1.50131 1.3878 1.3878C1.50131 1.2743 1.65526 1.21053 1.81579 1.21053Z" fill="#363F3D"/>
</svg>
