<svg width="56" height="66" viewBox="0 0 56 66" fill="none" xmlns="http://www.w3.org/2000/svg">
<g id="Prescription icon big">
<g id="Group 1000004501">
<line id="Line 42" x1="28.5542" y1="31.7502" x2="28.5542" y2="50.2883" stroke="#363F3D" stroke-width="3.5"/>
<line id="Line 44" x1="28.2417" y1="2.59998" x2="28.2417" y2="9.88848" stroke="#363F3D" stroke-width="3.5"/>
<line id="Line 45" x1="36.9863" y1="2.59998" x2="36.9863" y2="9.88848" stroke="#363F3D" stroke-width="3.5"/>
<line id="Line 46" x1="19.4966" y1="2.59998" x2="19.4966" y2="9.88848" stroke="#363F3D" stroke-width="3.5"/>
<line id="Line 43" x1="38.8574" y1="40.4232" x2="17.0392" y2="40.4232" stroke="#363F3D" stroke-width="3.5"/>
<g id="Rectangle 1928">
<mask id="path-6-inside-1_622_3068" fill="white">
<path d="M0.256348 27.7485C0.256348 20.5688 6.07665 14.7485 13.2563 14.7485H42.641C49.8207 14.7485 55.641 20.5688 55.641 27.7485V62.7681C55.641 64.4249 54.2978 65.7681 52.641 65.7681H3.25635C1.59949 65.7681 0.256348 64.4249 0.256348 62.7681V27.7485Z"/>
</mask>
<path d="M0.256348 27.7485C0.256348 20.5688 6.07665 14.7485 13.2563 14.7485H42.641C49.8207 14.7485 55.641 20.5688 55.641 27.7485V62.7681C55.641 64.4249 54.2978 65.7681 52.641 65.7681H3.25635C1.59949 65.7681 0.256348 64.4249 0.256348 62.7681V27.7485Z" stroke="#363F3D" stroke-width="7" mask="url(#path-6-inside-1_622_3068)"/>
</g>
<g id="Rectangle 1929">
<mask id="path-7-inside-2_622_3068" fill="white">
<rect x="9.48682" y="0.170349" width="36.9231" height="16.8963" rx="2"/>
</mask>
<rect x="9.48682" y="0.170349" width="36.9231" height="16.8963" rx="2" stroke="#363F3D" stroke-width="7" mask="url(#path-7-inside-2_622_3068)"/>
</g>
</g>
</g>
</svg>
