<svg width="40" height="41" viewBox="0 0 40 41" fill="none" xmlns="http://www.w3.org/2000/svg">
<g id="mdi-light:account">
<path id="Vector" d="M19.1667 23.8333C26.0667 23.8333 31.6667 26.4499 31.6667 29.6666V33.8333H6.66669V29.6666C6.66669 26.4499 12.2667 23.8333 19.1667 23.8333ZM30 29.6666C30 27.3666 25.15 25.4999 19.1667 25.4999C13.1834 25.4999 8.33335 27.3666 8.33335 29.6666V32.1666H30V29.6666ZM19.1667 8.83325C20.7138 8.83325 22.1975 9.44783 23.2915 10.5418C24.3854 11.6358 25 13.1195 25 14.6666C25 16.2137 24.3854 17.6974 23.2915 18.7914C22.1975 19.8853 20.7138 20.4999 19.1667 20.4999C17.6196 20.4999 16.1359 19.8853 15.0419 18.7914C13.9479 17.6974 13.3334 16.2137 13.3334 14.6666C13.3334 13.1195 13.9479 11.6358 15.0419 10.5418C16.1359 9.44783 17.6196 8.83325 19.1667 8.83325ZM19.1667 10.4999C18.0616 10.4999 17.0018 10.9389 16.2204 11.7203C15.439 12.5017 15 13.5615 15 14.6666C15 15.7717 15.439 16.8315 16.2204 17.6129C17.0018 18.3943 18.0616 18.8333 19.1667 18.8333C20.2718 18.8333 21.3316 18.3943 22.113 17.6129C22.8944 16.8315 23.3334 15.7717 23.3334 14.6666C23.3334 13.5615 22.8944 12.5017 22.113 11.7203C21.3316 10.9389 20.2718 10.4999 19.1667 10.4999Z" fill="#363F3D"/>
</g>
</svg>
