<svg width="66" height="78" viewBox="0 0 66 78" fill="none" xmlns="http://www.w3.org/2000/svg">
<g id="mdi-light:clipboard-text">
<rect x="1.14014" y="1.08307" width="64.3" height="64.3" stroke="white"/>
<path id="Vector 14" d="M31.6805 11H24.0002C24.0002 17.5219 24 17.5219 24 17.5219C24 17.5219 24 19.6958 25.2802 19.6958C26.0665 19.6958 26.9258 19.6958 27.8405 19.6958M31.6805 11V19.6958M31.6805 11H40.6404M31.6805 19.6958C34.5406 19.6958 37.6519 19.6958 40.6404 19.6958M31.6805 19.6958C30.3315 19.6958 29.0384 19.6958 27.8405 19.6958M40.6404 19.6958V11M40.6404 19.6958C43.404 19.6958 46.0626 19.6958 48.3202 19.6958M40.6404 11H48.3202M48.3202 11H56V17.5219C56 18.6088 55.9998 19.6958 54.72 19.6958C54.3502 19.6958 53.4463 19.6958 52.1603 19.6958M48.3202 11V19.6958M48.3202 19.6958C49.8004 19.6958 51.1082 19.6958 52.1603 19.6958M52.1603 19.6958V45.7832M27.8405 19.6958V39.2614M27.8405 39.2614V67.5227C29.1205 70.7836 33.4725 77.0881 40.6404 76.2185C47.8083 75.3489 51.307 70.059 52.1603 67.5227V45.7832M27.8405 39.2614C31.6805 39.2614 39.6164 40.1309 40.6404 43.6093C41.9204 47.9572 52.1603 46.8702 52.1603 45.7832" stroke="#363F3D" stroke-width="3"/>
</g>
</svg>
